0
SECTION
2
HEADER
9
$INSUNITS
70
4
9
$ACADVER
1
AC1014
9
$HANDSEED
5
FFFF
0
ENDSEC
0
SECTION
2
TABLES
0
TABLE
2
VPORT
5
8
100
AcDbSymbolTable
0
ENDTAB
0
TABLE
2
LTYPE
5
5
100
AcDbSymbolTable
0
LTYPE
5
14
100
AcDbSymbolTableRecord
100
AcDbLinetypeTableRecord
2
BYBLOCK
70
0
0
LTYPE
5
15
100
AcDbSymbolTableRecord
100
AcDbLinetypeTableRecord
2
BYLAYER
70
0
0
ENDTAB
0
TABLE
2
LAYER
5
2
100
AcDbSymbolTable
70
2
0
LAYER
5
50
100
AcDbSymbolTableRecord
100
AcDbLayerTableRecord
2
0
70
0
6
CONTINUOUS
0
ENDTAB
0
TABLE
2
STYLE
5
3
100
AcDbSymbolTable
70
1
0
STYLE
5
11
100
AcDbSymbolTableRecord
100
AcDbTextStyleTableRecord
2
STANDARD
70
0
0
ENDTAB
0
TABLE
2
VIEW
5
6
100
AcDbSymbolTable
70
0
0
ENDTAB
0
TABLE
2
UCS
5
7
100
AcDbSymbolTable
70
0
0
ENDTAB
0
TABLE
2
APPID
5
9
100
AcDbSymbolTable
70
2
0
APPID
5
12
100
AcDbSymbolTableRecord
100
AcDbRegAppTableRecord
2
ACAD
70
0
0
ENDTAB
0
TABLE
2
DIMSTYLE
5
A
100
AcDbSymbolTable
70
1
0
ENDTAB
0
TABLE
2
BLOCK_RECORD
5
1
100
AcDbSymbolTable
70
1
0
BLOCK_RECORD
5
1F
100
AcDbSymbolTableRecord
100
AcDbBlockTableRecord
2
*MODEL_SPACE
0
BLOCK_RECORD
5
1B
100
AcDbSymbolTableRecord
100
AcDbBlockTableRecord
2
*PAPER_SPACE
0
ENDTAB
0
ENDSEC
0
SECTION
2
BLOCKS
0
BLOCK
5
20
100
AcDbEntity
100
AcDbBlockBegin
2
*MODEL_SPACE
0
ENDBLK
5
21
100
AcDbEntity
100
AcDbBlockEnd
0
BLOCK
5
1C
100
AcDbEntity
100
AcDbBlockBegin
2
*PAPER_SPACE
0
ENDBLK
5
1D
100
AcDbEntity
100
AcDbBlockEnd
0
ENDSEC
0
SECTION
2
ENTITIES
0
LINE
5
100
100
AcDbEntity
8
0
100
AcDbLine
10
-44.971251200589847
20
-145.67332064054838
30
-4.8764903226583556e-09
11
-46.918137308522972
21
-145.62861609441509
31
-4.8749981829132594e-09
0
LINE
5
101
100
AcDbEntity
8
0
100
AcDbLine
10
-46.918137308522972
20
-145.62861609441509
30
-4.8749981829132594e-09
11
-47.978197836172967
21
-145.71912487366404
31
-4.8780179895402398e-09
0
ARC
5
102
100
AcDbEntity
8
0
100
AcDbCircle
10
-50.541818316516576
20
-125.88410911786363
30
3.8108434157619782e-11
40
20.00000000000221
210
-7.938837218416592e-13
220
-3.3458922250841944e-11
230
1
100
AcDbArc
50
268.64079143526004
51
277.36449327105083
0
LINE
5
103
100
AcDbEntity
8
0
100
AcDbLine
10
-51.016227110352148
20
-145.87848173358779
30
-4.8833292964900465e-09
11
-54.973544484648293
21
-145.78458600610293
31
-4.8802206720210961e-09
0
LINE
5
104
100
AcDbEntity
8
0
100
AcDbLine
10
-54.973544484648293
20
-145.78458600610293
30
-4.8802206720210961e-09
11
-78.272031491636639
21
-145.27783926645697
31
-4.8632564642048237e-09
0
ARC
5
105
100
AcDbEntity
8
0
100
AcDbCircle
10
-78.315521604824426
20
-147.2773663630613
30
5.1894667627934931e-11
40
2.0000000000000271
210
-7.2734603346973873e-13
220
-3.3440890260524456e-11
230
1
100
AcDbArc
50
88.754001824220595
51
178.64079143524586
0
LINE
5
106
100
AcDbEntity
8
0
100
AcDbLine
10
-80.314958866396609
20
-147.22992548367725
30
-4.9285731051895709e-09
11
-81.166616296999678
21
-183.12377110693751
31
-6.1301541620650823e-09
0
ARC
5
107
100
AcDbEntity
8
0
100
AcDbCircle
10
-79.167179035427495
20
-183.17121198632157
30
-6.1317706467889366e-09
40
1.9999999999999987
210
8.0801494740909113e-13
220
-1.9171864202634108e-14
230
1
100
AcDbArc
50
178.64079143524586
51
268.64079143479933
0
LINE
5
108
100
AcDbEntity
8
0
100
AcDbLine
10
-79.214619914827125
20
-185.17064924789338
30
-6.198703772497538e-09
11
-58.784762679973497
21
-185.6553908358683
31
-6.2149219104412623e-09
0
ARC
5
109
100
AcDbEntity
8
0
100
AcDbCircle
10
-58.832203559373141
20
-187.65482809744012
30
-1.0595067445181235e-09
40
1.9999999999999927
210
-1.5531355919640594e-11
220
-2.2960358685498378e-11
230
1
100
AcDbArc
50
55.923919971809951
51
88.640791434798942
0
ARC
5
110
100
AcDbEntity
8
0
100
AcDbCircle
10
-53.789564352465888
20
-180.2001792238195
30
-1.0573781990146728e-09
40
7.0000000000006342
210
-1.553775415295591e-11
220
-2.2969817340147787e-11
230
1
100
AcDbArc
50
235.92391997181048
51
243.8909499736651
0
ARC
5
111
100
AcDbEntity
8
0
100
AcDbCircle
10
-60.390779506946444
20
-193.66955034812537
30
-1.1967420057461348e-09
40
8.0000000000011227
210
-1.5759049058293899e-11
220
-2.2382349610497355e-11
230
1
100
AcDbArc
50
54.851245532427562
51
63.890949973666046
0
ARC
5
112
100
AcDbEntity
8
0
100
AcDbCircle
10
-52.906663534635491
20
-183.03996860127538
30
-1.1973996944609878e-09
40
4.9999999999976019
210
-1.5757003756676478e-11
220
-2.2379444698165327e-11
230
1
100
AcDbArc
50
234.85124553242059
51
245.7427664071065
0
ARC
5
113
100
AcDbEntity
8
0
100
AcDbCircle
10
-45.840319434543972
20
-167.35855345278819
30
-3.7045730570294808e-10
40
22.200000000000564
210
-1.2539528076797855e-11
220
-2.7827337977438039e-11
230
1
100
AcDbArc
50
245.74276640720268
51
268.88193199896813
0
ARC
5
114
100
AcDbEntity
8
0
100
AcDbCircle
10
-46.351552945681519
20
-193.55356519733772
30
-2.6831277051377699e-09
40
3.9999999999999392
210
-1.6698727156536198e-11
220
-1.5614429571379967e-11
230
1
100
AcDbArc
50
43.078108746771839
51
88.88193199896817
0
ARC
5
115
100
AcDbEntity
8
0
100
AcDbCircle
10
-40.508166667535932
20
-188.08960721759809
30
-2.6816883913852539e-09
40
3.9999999999988338
210
-1.6705214618532342e-11
220
-1.5620495783334962e-11
230
1
100
AcDbArc
50
223.07810874675846
51
268.64079140987559
0
LINE
5
116
100
AcDbEntity
8
0
100
AcDbLine
10
-40.603048428074679
20
-192.08848174069931
30
-6.4302874136501487e-09
11
-26.364166493943856
21
-192.42632934080632
31
-6.4415850431487343e-09
0
SPLINE
5
117
100
AcDbEntity
8
0
100
AcDbSpline
70
0
71
3
72
16
73
12
74
0
42
0.000000001
43
0.0000000001
44
0.0000000001
40
-0.20540176347818839
40
-0.20540176347818839
40
-0.20540176347818839
40
-0.20540176347818839
40
-0.19862833765799254
40
-0.19862833765799254
40
-0.18960048211866481
40
-0.18960048211866481
40
-0.15650307995742654
40
-0.15650307995742654
40
-0.060722484020080771
40
-0.060722484020080771
40
-0
40
-0
40
-0
40
-0
10
-26.364166493943856
20
-192.42632934080629
30
-6.4415850431487343e-09
10
-26.204294343706213
20
-192.43012264582362
30
-6.4417271516958863e-09
10
-26.032654702068516
20
-192.41095036977941
30
-6.4411054268020962e-09
10
-25.66486536660819
20
-192.33240585269681
30
-6.4384764186797838e-09
10
-25.519613881083011
20
-192.27042291778534
30
-6.4364158447460795e-09
10
-25.050359527882151
20
-192.03779527034985
30
-6.4286176382211124e-09
10
-24.830874107761616
20
-191.79185926855877
30
-6.4202509975075372e-09
10
-24.693477393842361
20
-191.63591347759834
30
-6.4150285083997005e-09
10
-24.520810805561489
20
-191.42481488170912
30
-6.4081007167260395e-09
10
-24.336362408208192
20
-190.90813238783059
30
-6.3908167646786751e-09
10
-24.291473524357428
20
-190.67741071759866
30
-6.383054085290496e-09
10
-24.286672310956988
20
-190.47505938899039
30
-6.376268402163987e-09
0
LINE
5
118
100
AcDbEntity
8
0
100
AcDbLine
10
-24.286672310956988
20
-190.47505938899039
30
-6.376250638595593e-09
11
-23.8330586159503
21
-171.357114360541
31
-5.7362825600648648e-09
0
LINE
5
119
100
AcDbEntity
8
0
100
AcDbLine
10
-23.8330586159503
20
-171.357114360541
30
-5.7362825600648648e-09
11
-23.83366688957663
21
-171.3400211291551
31
-5.7356963623078627e-09
0
SPLINE
5
120
100
AcDbEntity
8
0
100
AcDbSpline
70
0
71
3
72
10
73
6
74
0
42
0.000000001
43
0.0000000001
44
0.0000000001
40
-0.44459351435274697
40
-0.44459351435274697
40
-0.44459351435274697
40
-0.44459351435274697
40
-0.22232066088780428
40
-0.22232066088780428
40
-9.9999788930934408e-07
40
-9.9999788930934408e-07
40
-9.9999788930934408e-07
40
-9.9999788930934408e-07
10
-23.83366688957663
20
-171.34002112915508
30
-5.7356963623078627e-09
10
-23.81602895109614
20
-170.59951667362671
30
-5.7108984208298352e-09
10
-23.872469530343249
20
-169.86131846127219
30
-5.6861182429202017e-09
10
-24.109318591983879
20
-168.39838533339469
30
-5.6371440848579368e-09
10
-24.28879843046435
20
-167.67955282920892
30
-5.6131810310944275e-09
10
-24.514854944075708
20
-166.97380743709854
30
-5.5895377215620101e-09
0
LINE
5
121
100
AcDbEntity
8
0
100
AcDbLine
10
-24.514854944075708
20
-166.97380743709854
30
-5.5895377215620101e-09
11
-30.295642684618826
21
-148.94311362699239
31
-4.985949431102199e-09
0
ARC
5
122
100
AcDbEntity
8
0
100
AcDbCircle
10
-38.294592165539271
20
-151.50764227796697
30
-4.2266666668138075e-09
40
8.3999999999992241
210
-9.7284047641362258e-12
220
-3.1190061651738398e-12
230
1
100
AcDbArc
50
17.776275496117997
51
27.279850138965845
0
LINE
5
123
100
AcDbEntity
8
0
100
AcDbLine
10
-30.828852965244103
20
-147.65761134391423
30
-4.9428727777467429e-09
11
-30.837425604467647
21
-147.63820166494094
31
-4.9422688164213469e-09
0
SPLINE
5
124
100
AcDbEntity
8
0
100
AcDbSpline
70
0
71
3
72
12
73
8
74
0
42
0.000000001
43
0.0000000001
44
0.0000000001
40
-0.42455082492028773
40
-0.42455082492028773
40
-0.42455082492028773
40
-0.42455082492028773
40
-0.24811568013475263
40
-0.24811568013475263
40
-0.11440711277155763
40
-0.11440711277155763
40
-0
40
-0
40
-0
40
-0
10
-30.837425604467651
20
-147.63820166494096
30
-4.9422688164213469e-09
10
-31.007016522416006
20
-147.31408385937382
30
-4.9314152761326113e-09
10
-31.234583008265012
20
-147.02047875917094
30
-4.921751894926274e-09
10
-31.7078891169507
20
-146.58519975768672
30
-4.9071680052747979e-09
10
-32.008738215326971
20
-146.35583381082827
30
-4.8992632173394668e-09
10
-32.769430528088535
20
-146.03690402873031
30
-4.8885873127346713e-09
10
-33.149886686560478
20
-145.95348484114487
30
-4.8858694867703889e-09
10
-33.531138333312221
20
-145.94451958776102
30
-4.8855675061076909e-09
0
LINE
5
125
100
AcDbEntity
8
0
100
AcDbLine
10
-33.531138333312221
20
-145.94451958776102
30
-4.8855675061076909e-09
11
-33.531157648441948
21
-145.94476106469915
31
-4.8855852696760849e-09
0
LINE
5
126
100
AcDbEntity
8
0
100
AcDbLine
10
-33.531157648441948
20
-145.94476106469915
30
-4.8855852696760849e-09
11
-44.971251200589847
21
-145.67332064054838
31
-4.8764903226583556e-09
0
CIRCLE
5
127
100
AcDbEntity
8
0
100
AcDbCircle
10
55.092146683105682
20
-150.78317916009186
30
5.673632824394197e-09
40
1.6000000000000016
210
-4.1920715355847905e-13
220
8.6397360619938635e-20
230
-1
0
ELLIPSE
5
128
100
AcDbEntity
8
0
100
AcDbEllipse
10
-53.292857598808332
20
-179.29148663824299
30
-6.0018834346919903e-09
11
-0.03795270350691566
21
-1.5995498092610163
31
0.0
40
0.99999999999796252
41
0
42
6.2831853071795862
0
CIRCLE
5
129
100
AcDbEntity
8
0
100
AcDbCircle
10
34.622931761376378
20
-179.72685455612108
30
6.0164955512851069e-09
40
1.6999999999999593
210
-3.0221153529210213e-16
220
4.2351647362715017e-22
230
-1
0
CIRCLE
5
130
100
AcDbEntity
8
0
100
AcDbCircle
10
34.316651322917352
20
-166.8183981973246
30
5.5843433668393459e-09
40
2.7000000000000002
210
-3.0221152205721233e-16
220
4.2351647362715017e-22
230
-1
0
CIRCLE
5
131
100
AcDbEntity
8
0
100
AcDbCircle
10
63.055994848238171
20
-157.59618033258687
30
5.2756212335166541e-09
40
1.7999999999999972
210
-3.0221152867465723e-16
220
4.2351647362715017e-22
230
-1
0
CIRCLE
5
132
100
AcDbEntity
8
0
100
AcDbCircle
10
78.051774310029614
20
-157.24037373720881
30
5.2637064110218639e-09
40
1.7999999999999972
210
-3.0221152867465723e-16
220
4.2351647362715017e-22
230
-1
0
CIRCLE
5
133
100
AcDbEntity
8
0
100
AcDbCircle
10
63.435521883308553
20
-173.59167842516499
30
5.811104117444531e-09
40
1.7999999999999972
210
-3.0221152867465723e-16
220
4.2351647362715017e-22
230
-1
0
CIRCLE
5
134
100
AcDbEntity
8
0
100
AcDbCircle
10
78.431301345099897
20
-173.23587182978594
30
5.7991892949497409e-09
40
1.7999999999999972
210
-3.0221152867465723e-16
220
4.2351647362715017e-22
230
-1
0
CIRCLE
5
135
100
AcDbEntity
8
0
100
AcDbCircle
10
-55.092146683105682
20
-150.78317916009186
30
0
40
1.6000000000000019
210
1.7098465457356441e-24
220
-3.548460845540236e-31
230
1
0
CIRCLE
5
136
100
AcDbEntity
8
0
100
AcDbCircle
10
-53.292857598808332
20
-179.29148663824296
30
0
40
1.6000000000032613
210
6.8608280319820689e-24
220
8.4710855566512993e-22
230
1
0
LINE
5
137
100
AcDbEntity
8
0
100
AcDbLine
10
-44.971251200589847
20
-145.67332064054835
30
0
11
-46.918137308522965
21
-145.62861609441509
31
-1.6543612251060553e-23
0
LINE
5
138
100
AcDbEntity
8
0
100
AcDbLine
10
-46.918137308522965
20
-145.62861609441509
30
-1.6543612251060553e-23
11
-47.978197836172967
21
-145.71912487366401
31
0
0
ARC
5
139
100
AcDbEntity
8
0
100
AcDbCircle
10
-50.541818316516476
20
-125.88410911786382
30
1.776356839400194e-14
40
20.000000000002039
210
-1.783927798286423e-24
220
4.2680867153983427e-22
230
1
100
AcDbArc
50
268.64079143525987
51
277.36449327105061
0
LINE
5
140
100
AcDbEntity
8
0
100
AcDbLine
10
-51.016227110352133
20
-145.87848173358779
30
1.7763576926927241e-14
11
-54.973544484648293
21
-145.7845860061029
31
-6.6174449004242214e-23
0
LINE
5
141
100
AcDbEntity
8
0
100
AcDbLine
10
-54.973544484648293
20
-145.7845860061029
30
-6.6174449004242214e-23
11
-78.272031491636639
21
-145.27783926645699
31
-2.6469779601696886e-22
0
ARC
5
142
100
AcDbEntity
8
0
100
AcDbCircle
10
-78.31552160482444
20
-147.2773663630613
30
-1.4811228820360823e-35
40
1.9999999999999918
210
-8.6805497594597771e-24
220
1.3256900322015535e-22
230
1
100
AcDbArc
50
88.754001824220168
51
178.64079143524586
0
LINE
5
143
100
AcDbEntity
8
0
100
AcDbLine
10
-80.314958866396609
20
-147.22992548367725
30
-2.646977960170174e-23
11
-81.166616296999678
21
-183.12377110693751
31
1.7763593804990922e-14
0
ARC
5
144
100
AcDbEntity
8
0
100
AcDbCircle
10
-79.167179035427523
20
-183.17121198632154
30
4.8783015559124932e-35
40
1.9999999999999623
210
8.8792978483290752e-15
220
-2.1067970438502246e-16
230
1
100
AcDbArc
50
178.64079143524634
51
268.64079143480012
0
LINE
5
145
100
AcDbEntity
8
0
100
AcDbLine
10
-79.214619914827125
20
-185.17064924789335
30
8.4703294725429056e-22
11
-58.784762679973497
21
-185.6553908358683
31
1.7763568658700301e-14
0
ARC
5
146
100
AcDbEntity
8
0
100
AcDbCircle
10
-58.832203559373141
20
-187.65482809744012
30
1.7763568394002505e-14
40
1.9999999999999927
210
-5.6751434800664507e-23
220
2.9404485448376547e-22
230
1
100
AcDbArc
50
55.923919971809951
51
88.640791434798942
0
ARC
5
147
100
AcDbEntity
8
0
100
AcDbCircle
10
-53.789564352465874
20
-180.20017922381948
30
1.7763568394002505e-14
40
7.0000000000006688
210
-3.8469534917874944e-22
220
1.8717966375806542e-22
230
1
100
AcDbArc
50
235.92391997181053
51
243.89094997366499
0
ARC
5
148
100
AcDbEntity
8
0
100
AcDbCircle
10
-60.390779506946124
20
-193.66955034812491
30
1.7763568394002038e-14
40
8.0000000000005613
210
8.9422287751524614e-23
220
6.6364078457191344e-22
230
1
100
AcDbArc
50
54.851245532427562
51
63.890949973666814
0
ARC
5
149
100
AcDbEntity
8
0
100
AcDbCircle
10
-52.906663534635491
20
-183.03996860127535
30
1.7763568394002505e-14
40
4.9999999999976303
210
-5.4725071174195476e-22
220
-7.7725227642162291e-22
230
1
100
AcDbArc
50
234.85124553242079
51
245.7427664071065
0
ARC
5
150
100
AcDbEntity
8
0
100
AcDbCircle
10
-45.840319434543957
20
-167.35855345278821
30
1.7763568394002505e-14
40
22.200000000000504
210
-2.5111106619722812e-22
220
2.1589461406962144e-22
230
1
100
AcDbArc
50
245.74276640720265
51
268.88193199896818
0
ARC
5
151
100
AcDbEntity
8
0
100
AcDbCircle
10
-46.351552945681568
20
-193.55356519733786
30
0
40
4.0000000000000995
210
0
220
-0
230
1
100
AcDbArc
50
43.078108746773346
51
88.881931998967175
0
ARC
5
152
100
AcDbEntity
8
0
100
AcDbCircle
10
-40.508166667535932
20
-188.08960721759814
30
0
40
3.9999999999987788
210
-1.446297634766453e-22
220
1.5467314691013965e-22
230
1
100
AcDbArc
50
223.07810874675735
51
268.6407914098757
0
LINE
5
153
100
AcDbEntity
8
0
100
AcDbLine
10
-40.603048428074672
20
-192.08848174069931
30
1.7908596538734627e-21
11
-26.364166493943859
21
-192.42632934080632
31
1.7763568526351403e-14
0
SPLINE
5
154
100
AcDbEntity
8
0
100
AcDbSpline
70
0
71
3
72
16
73
12
74
0
42
0.000000001
43
0.0000000001
44
0.0000000001
40
-0.20540176347818839
40
-0.20540176347818839
40
-0.20540176347818839
40
-0.20540176347818839
40
-0.19862833765799254
40
-0.19862833765799254
40
-0.18960048211866481
40
-0.18960048211866481
40
-0.15650307995742654
40
-0.15650307995742654
40
-0.060722484020080771
40
-0.060722484020080771
40
0
40
0
40
0
40
0
10
-26.364166493943848
20
-192.42632934080629
30
1.7763568394002505e-14
10
-26.204294343706213
20
-192.43012264582362
30
0
10
-26.032654702068516
20
-192.41095036977947
30
0
10
-25.66486536660819
20
-192.33240585269684
30
0
10
-25.519613881083011
20
-192.27042291778534
30
0
10
-25.050359527882151
20
-192.03779527034985
30
1.7763568394002505e-14
10
-24.830874107761613
20
-191.7918592685588
30
0
10
-24.693477393842361
20
-191.63591347759834
30
0
10
-24.520810805561489
20
-191.42481488170912
30
0
10
-24.336362408208192
20
-190.90813238783056
30
0
10
-24.291473524357428
20
-190.67741071759869
30
0
10
-24.286672310956988
20
-190.47505938899039
30
0
0
LINE
5
155
100
AcDbEntity
8
0
100
AcDbLine
10
-24.286672310956984
20
-190.47505938899036
30
0
11
-23.833058615950304
21
-171.357114360541
31
-8.4703294725430034e-21
0
LINE
5
156
100
AcDbEntity
8
0
100
AcDbLine
10
-23.833058615950304
20
-171.357114360541
30
-8.4703294725430034e-21
11
-23.83366688957663
21
-171.34002112915513
31
-1.2407709188295415e-23
0
SPLINE
5
157
100
AcDbEntity
8
0
100
AcDbSpline
70
0
71
3
72
10
73
6
74
0
42
0.000000001
43
0.0000000001
44
0.0000000001
40
-0.44459351435274697
40
-0.44459351435274697
40
-0.44459351435274697
40
-0.44459351435274697
40
-0.22232066088780428
40
-0.22232066088780428
40
-9.9999788930934408e-07
40
-9.9999788930934408e-07
40
-9.9999788930934408e-07
40
-9.9999788930934408e-07
10
-23.83366688957663
20
-171.3400211291551
30
1.7763568394002505e-14
10
-23.81602895109614
20
-170.59951667362674
30
1.7763568394002505e-14
10
-23.872469530343249
20
-169.86131846127219
30
1.7763568394002505e-14
10
-24.109318591983879
20
-168.39838533339469
30
1.7763568394002505e-14
10
-24.28879843046435
20
-167.67955282920892
30
0
10
-24.514854944075704
20
-166.97380743709854
30
1.7763568394002505e-14
0
LINE
5
158
100
AcDbEntity
8
0
100
AcDbLine
10
-24.514854944075701
20
-166.97380743709854
30
1.7763568394002501e-14
11
-30.295642684618826
21
-148.94311362699241
31
-8.4703294725430034e-21
0
ARC
5
159
100
AcDbEntity
8
0
100
AcDbCircle
10
-38.294592165539271
20
-151.50764227796694
30
1.7763568394002505e-14
40
8.3999999999992063
210
2.0137463834305043e-15
220
6.4562401174810028e-16
230
1
100
AcDbArc
50
17.776275496117641
51
27.279850138965692
0
LINE
5
160
100
AcDbEntity
8
0
100
AcDbLine
10
-30.82885296524411
20
-147.65761134391423
30
1.7763566052264288e-14
11
-30.837425604467651
21
-147.63820166494094
31
1.7763568394002505e-14
0
SPLINE
5
161
100
AcDbEntity
8
0
100
AcDbSpline
70
0
71
3
72
12
73
8
74
0
42
0.000000001
43
0.0000000001
44
0.0000000001
40
-0.42455082492028773
40
-0.42455082492028773
40
-0.42455082492028773
40
-0.42455082492028773
40
-0.24811568013475263
40
-0.24811568013475263
40
-0.11440711277155763
40
-0.11440711277155763
40
0
40
0
40
0
40
0
10
-30.837425604467651
20
-147.63820166494094
30
0
10
-31.007016522416006
20
-147.3140838593738
30
1.7763568394002505e-14
10
-31.234583008265012
20
-147.02047875917094
30
0
10
-31.7078891169507
20
-146.58519975768672
30
1.7763568394002505e-14
10
-32.008738215326971
20
-146.35583381082827
30
0
10
-32.769430528088527
20
-146.03690402873031
30
0
10
-33.149886686560478
20
-145.95348484114487
30
0
10
-33.531138333312221
20
-145.94451958776099
30
0
0
LINE
5
162
100
AcDbEntity
8
0
100
AcDbLine
10
-33.531138333312221
20
-145.94451958776096
30
0
11
-33.531157648441948
21
-145.94476106469912
31
1.2924697071141057e-25
0
LINE
5
163
100
AcDbEntity
8
0
100
AcDbLine
10
-33.531157648441948
20
-145.94476106469912
30
1.2924697071141057e-25
11
-44.971251200589847
21
-145.67332064054835
31
0
0
CIRCLE
5
164
100
AcDbEntity
8
0
100
AcDbCircle
10
-34.622931761376378
20
-179.72685455612108
30
0
40
1.6999999999999595
210
-3.1128595576962689e-24
220
4.2351647362715017e-22
230
1
0
CIRCLE
5
165
100
AcDbEntity
8
0
100
AcDbCircle
10
-34.316651322917352
20
-166.81839819732463
30
1.7763568394002505e-14
40
2.7000000000000002
210
-5.6358505086296317e-24
220
1.9553284368755996e-41
230
1
0
CIRCLE
5
166
100
AcDbEntity
8
0
100
AcDbCircle
10
-63.055994848238171
20
-157.59618033258687
30
0
40
1.7999999999999974
210
4.045226290132876e-24
220
4.2351647362715026e-22
230
1
0
CIRCLE
5
167
100
AcDbEntity
8
0
100
AcDbCircle
10
-78.051774310029614
20
-157.24037373720881
30
0
40
1.7999999999999974
210
4.045226290132876e-24
220
4.2351647362715026e-22
230
1
0
CIRCLE
5
168
100
AcDbEntity
8
0
100
AcDbCircle
10
-63.435521883308553
20
-173.59167842516499
30
0
40
1.7999999999999974
210
4.045226290132876e-24
220
4.2351647362715026e-22
230
1
0
CIRCLE
5
169
100
AcDbEntity
8
0
100
AcDbCircle
10
-78.431301345099897
20
-173.23587182978588
30
1.7763568394002505e-14
40
1.7999999999999974
210
4.045226290132876e-24
220
4.2351647362715026e-22
230
1
0
ENDSEC
0
SECTION
2
OBJECTS
0
DICTIONARY
5
C
100
AcDbDictionary
3
ACAD_GROUP
350
D
3
ACAD_MLINESTYLE
350
17
0
DICTIONARY
5
D
100
AcDbDictionary
0
DICTIONARY
5
1A
330
C
100
AcDbDictionary
0
DICTIONARY
5
17
100
AcDbDictionary
0
ENDSEC
0
EOF
